<svg version="1.1" id="Layer_1" xmlns="http://www.w3.org/2000/svg" xmlns:xlink="http://www.w3.org/1999/xlink" x="0px" y="0px"
	 width="100%" viewBox="0 0 1024 1024" enable-background="new 0 0 1024 1024" xml:space="preserve">
<path fill="#000000" opacity="1.000000" stroke="none" 
	d="
M635.541138,636.363770 
	C635.367493,635.834106 635.300659,635.681091 635.244629,635.524353 
	C630.494751,622.231995 630.494751,622.231750 616.563965,622.232666 
	C591.068542,622.234253 565.572388,622.330383 540.078308,622.146301 
	C535.774475,622.115173 533.275269,623.188721 532.090759,627.559387 
	C530.919128,631.882812 528.760742,635.942993 527.641724,640.275269 
	C526.547668,644.510742 524.210632,645.779297 520.092773,645.479797 
	C515.949097,645.178345 511.762573,645.522156 507.601074,645.388428 
	C504.843872,645.299744 503.307648,646.484131 502.354889,648.998901 
	C495.630096,666.748230 488.595398,684.385193 482.179565,702.244751 
	C478.780762,711.705872 483.118042,721.049377 491.589111,724.097595 
	C494.205902,725.039185 497.120758,725.190186 499.915955,725.583984 
	C501.574585,725.817688 502.874512,726.311035 502.865662,728.245117 
	C502.856720,730.190918 501.440887,730.738586 499.863159,730.915833 
	C498.543060,731.064209 497.202240,731.066772 495.870544,731.067932 
	C470.875092,731.089233 445.879608,731.101257 420.884155,731.111633 
	C419.884674,731.112000 418.882202,731.120239 417.886383,731.049805 
	C416.012878,730.917358 414.706299,730.205872 414.761475,728.010620 
	C414.811127,726.035706 416.104248,725.504089 417.703583,725.307434 
	C421.000946,724.902039 424.390381,724.885254 427.587677,724.089111 
	C440.647278,720.837219 449.734436,712.300354 455.135040,700.511169 
	C463.105957,683.111389 470.069031,665.249939 477.440887,647.576538 
	C477.551910,647.310364 477.400513,646.934753 477.342621,646.285156 
	C474.225830,645.383667 470.934631,645.341003 467.653931,645.440979 
	C436.002533,646.406006 404.351929,645.411743 372.701233,645.452637 
	C355.059479,645.475403 337.418091,645.705994 319.776276,645.781982 
	C317.750153,645.790710 315.016357,646.449524 314.786316,643.191711 
	C314.555206,639.918396 317.235382,640.050781 319.333344,640.038208 
	C334.291931,639.948364 343.100098,632.024780 347.187531,618.185486 
	C347.923553,615.693481 349.123322,614.646545 351.734985,614.690002 
	C358.731842,614.806641 365.734039,614.845337 372.729584,614.698669 
	C376.332733,614.623169 377.197327,616.365479 377.297363,619.596313 
	C377.647247,630.901489 377.729645,630.898682 389.214905,630.900269 
	C414.710327,630.903809 440.205750,630.913757 465.701172,630.903809 
	C469.033295,630.902527 472.378174,630.588074 475.694733,630.789001 
	C482.164703,631.181030 486.654968,628.969238 488.080231,622.216797 
	C489.368683,616.112610 493.013458,614.555603 499.199219,614.588806 
	C550.855042,614.865479 602.513367,614.811340 654.170105,614.635559 
	C658.978821,614.619202 661.161133,616.118713 662.732910,620.665222 
	C672.741577,649.616394 682.386719,678.714172 695.198730,706.610718 
	C707.367676,733.106750 722.452698,757.793823 741.672607,779.754639 
	C757.270996,797.577637 776.380676,809.759644 800.266663,813.271545 
	C808.378052,814.464111 816.535522,814.335022 824.669678,813.249451 
	C826.627258,812.988159 828.769775,812.285400 829.492859,815.173462 
	C830.208557,818.032104 828.092712,818.527161 826.175598,819.152527 
	C785.489319,832.423035 750.202332,822.790649 719.176636,794.247192 
	C690.120911,767.516174 671.942200,733.928589 657.414001,697.905823 
	C649.309692,677.810913 643.214661,657.017395 635.541138,636.363770 
z"/>
<path fill="#000000" opacity="1.000000" stroke="none" 
	d="
M402.000000,356.037781 
	C395.167267,356.020905 388.830139,356.139954 382.503418,355.936249 
	C378.726654,355.814636 377.162201,357.031433 377.173309,361.057434 
	C377.286011,401.887238 377.293701,442.717560 377.192566,483.547424 
	C377.182556,487.588776 378.752960,488.663361 382.527161,488.645844 
	C406.852570,488.532898 431.179718,488.709412 455.504242,488.523895 
	C465.073883,488.450897 473.107819,485.065155 477.524841,475.767273 
	C479.083221,472.486908 478.810730,468.944244 479.062256,465.468964 
	C479.215118,463.357330 478.974823,460.742584 482.221832,460.874420 
	C485.410980,461.003967 485.112823,463.593719 485.115234,465.707825 
	C485.137817,485.539490 485.133972,505.371277 485.071075,525.202820 
	C485.064575,527.249084 485.538696,529.975281 482.337830,530.163391 
	C478.671997,530.378845 479.067688,527.373230 479.158386,525.202209 
	C479.800415,509.837067 468.363495,502.624084 455.772430,502.902344 
	C432.285767,503.421417 408.779419,503.052368 385.281281,503.048096 
	C377.240784,503.046631 377.237976,503.040039 377.238861,511.317566 
	C377.240784,529.649475 377.257996,547.981323 377.243011,566.313232 
	C377.237762,572.753357 377.012878,572.963379 370.410400,572.998230 
	C364.577728,573.028992 358.742920,572.910522 352.912476,573.027100 
	C349.086182,573.103516 347.634949,571.512085 347.669128,567.639465 
	C347.810364,551.641968 347.735046,535.642456 347.735046,519.643738 
	C347.734955,470.980896 347.311646,422.312347 347.967621,373.658356 
	C348.187439,357.353302 334.180389,346.473907 320.879608,346.384827 
	C319.879974,346.378143 318.880249,346.354187 317.880890,346.326569 
	C316.162079,346.279053 314.994202,345.576080 314.877808,343.705109 
	C314.734314,341.399170 316.282074,340.934906 318.095886,340.848816 
	C319.426483,340.785675 320.761353,340.803070 322.094330,340.802979 
	C347.259033,340.801331 372.424133,340.712280 397.588257,340.833679 
	C415.334473,340.919281 432.815735,339.026672 450.040894,334.746613 
	C451.452240,334.395905 452.862122,333.571045 454.399353,334.339050 
	C455.513672,335.594879 455.280701,337.148895 455.282440,338.618561 
	C455.300415,353.783997 455.300446,368.949402 455.275482,384.114807 
	C455.273071,385.578552 455.563873,387.187988 454.267242,388.329987 
	C453.448578,389.051025 452.435089,389.053650 451.449158,388.678192 
	C449.909393,388.091705 449.768799,386.726593 449.762329,385.370941 
	C449.744049,381.535278 449.688965,377.726105 448.653442,373.971527 
	C445.868958,363.875671 437.477905,356.708984 426.989014,356.225494 
	C418.840424,355.849854 410.664032,356.078064 402.000000,356.037781 
z"/>
<path fill="#000000" opacity="1.000000" stroke="none" 
	d="
M597.728394,525.143555 
	C591.047363,505.189178 584.700562,485.526825 575.757324,466.846252 
	C575.485962,466.279419 575.013428,465.808929 574.042236,464.487213 
	C570.576843,473.287292 567.346924,481.429352 564.161682,489.588837 
	C553.988831,515.648621 543.769287,541.690613 533.739197,567.805298 
	C532.261169,571.653564 530.213867,573.456421 526.011169,573.108582 
	C522.369446,572.807129 518.683411,573.077820 515.018250,573.015930 
	C509.533447,572.923401 509.006592,572.223816 511.086151,567.211975 
	C518.361938,549.676636 525.742859,532.184937 533.029846,514.654297 
	C542.426636,492.048340 551.732361,469.404419 561.193665,446.825623 
	C562.236084,444.337952 561.936646,442.645752 560.361938,440.500366 
	C541.593201,414.930511 514.134888,405.469696 483.069244,414.011932 
	C480.339081,414.762665 477.626312,415.578369 474.887909,416.297089 
	C473.190948,416.742462 471.498260,416.916931 470.828857,414.704010 
	C470.155334,412.477448 471.233490,411.347717 473.250732,410.564636 
	C485.086578,405.970032 497.294617,402.790222 509.814209,400.759979 
	C532.927368,397.011841 553.412170,403.515930 571.635864,417.424377 
	C583.609253,426.562592 591.903748,438.976959 599.216064,451.962585 
	C610.305542,471.655823 617.354675,493.063690 625.056763,514.173889 
	C631.276062,531.220276 637.181396,548.381287 643.197815,565.501404 
	C643.903259,567.508850 644.428894,569.579468 645.072998,571.738281 
	C642.065918,573.695190 638.994751,572.909119 636.100952,572.974121 
	C630.437988,573.101318 624.764465,572.860718 619.106628,573.073059 
	C615.320374,573.215210 613.453003,571.707703 612.269653,568.092651 
	C607.608337,553.853271 602.665955,539.705994 597.728394,525.143555 
z"/>
<path fill="#000000" opacity="1.000000" stroke="none" 
	d="
M370.257263,586.255005 
	C370.413544,592.043823 370.544098,597.364502 370.700623,602.684326 
	C370.740051,604.024353 371.005768,605.680664 369.284088,605.933472 
	C367.161652,606.245300 366.973114,604.358032 366.936096,602.896240 
	C366.835480,598.920044 366.901550,594.939697 365.976410,590.720703 
	C364.072327,594.830017 362.169556,598.940002 360.263397,603.048340 
	C359.635437,604.401733 359.143738,605.963013 357.346954,606.123169 
	C355.153076,606.318787 354.672729,604.439636 353.987396,602.989868 
	C352.150208,599.103210 350.409027,595.171204 348.192017,590.294373 
	C346.942413,593.881287 347.678406,596.646606 347.265900,599.253174 
	C346.888214,601.639404 348.650696,605.001648 343.526855,606.485046 
	C343.838654,598.377075 343.385803,590.862854 344.399017,583.345276 
	C344.531769,582.360168 344.916840,581.356995 346.091064,581.121643 
	C347.801331,580.778809 348.466644,582.057861 349.030243,583.253967 
	C351.578674,588.662476 354.069580,594.098022 356.852173,600.109253 
	C360.345459,595.154846 361.961304,589.794922 364.510193,584.932007 
	C365.373993,583.283997 365.610321,580.565063 368.338989,581.161133 
	C370.702271,581.677490 369.979462,584.070862 370.257263,586.255005 
z"/>
<path fill="#000000" opacity="1.000000" stroke="none" 
	d="
M713.881592,592.214233 
	C712.828979,591.055054 712.594238,589.476440 710.688049,589.398865 
	C709.686584,594.842224 711.316162,600.528992 709.758423,605.855896 
	C706.569824,605.896729 706.862793,603.889160 706.843689,602.351685 
	C706.770935,596.520508 706.793701,590.687683 706.846619,584.856018 
	C706.859802,583.407349 706.658142,581.639343 708.618591,581.197266 
	C710.184326,580.844238 711.024963,582.142761 711.802673,583.189880 
	C715.147278,587.693054 718.435120,592.238525 721.743652,596.768616 
	C722.200195,596.676880 722.656799,596.585144 723.113342,596.493469 
	C723.113342,593.266785 723.000854,590.034729 723.154480,586.815369 
	C723.250000,584.813232 722.338989,581.554199 725.134155,581.425354 
	C728.339844,581.277588 727.143494,584.620239 727.210510,586.517395 
	C727.381165,591.343567 727.324097,596.181335 727.225830,601.011719 
	C727.190796,602.732971 727.994446,605.122437 725.791260,605.862183 
	C723.337341,606.686096 722.461304,604.185486 721.329346,602.664856 
	C718.842896,599.324646 716.482727,595.890381 713.881592,592.214233 
z"/>
<path fill="#000000" opacity="1.000000" stroke="none" 
	d="
M620.838501,584.301514 
	C620.984253,582.817566 621.234619,581.842041 622.203674,581.310608 
	C625.510620,579.497009 635.609741,581.133850 638.790222,584.210754 
	C642.830566,588.119446 643.100830,593.044983 641.649414,598.077271 
	C640.112915,603.404480 636.081665,606.085999 629.945862,606.318787 
	C628.784546,606.362854 627.603882,606.207214 626.460449,606.357971 
	C622.080688,606.935486 620.490601,605.068665 620.722595,600.713623 
	C621.005005,595.412354 620.801697,590.085327 620.838501,584.301514 
M625.215393,600.841492 
	C625.599915,602.127747 626.550110,602.579346 627.803650,602.763123 
	C633.520142,603.601135 638.128418,600.096069 638.607422,594.495056 
	C639.108704,588.633850 635.002441,584.361572 629.038086,584.335632 
	C626.367432,584.323975 625.019775,585.285828 625.064209,588.075073 
	C625.127441,592.042786 625.069763,596.012329 625.215393,600.841492 
z"/>
<path fill="#000000" opacity="1.000000" stroke="none" 
	d="
M412.462128,595.575073 
	C413.181976,600.212585 416.515747,602.474182 420.353577,604.283203 
	C417.204346,607.134949 415.023834,607.006714 412.341339,604.073975 
	C410.248962,601.786377 409.238983,598.585144 406.440979,596.690125 
	C404.535461,598.721680 405.628693,600.998596 405.281189,603.016907 
	C405.059052,604.306824 405.238159,605.948608 403.327118,605.886108 
	C401.747528,605.834534 401.731445,604.378540 401.724945,603.248047 
	C401.687439,596.749268 401.697510,590.250122 401.732300,583.751221 
	C401.738739,582.546509 402.114990,581.565125 403.431732,581.001892 
	C407.410492,579.299988 415.219543,581.380676 417.042175,584.726685 
	C419.164856,588.623474 417.851746,591.796814 412.462128,595.575073 
M413.623169,587.654968 
	C412.947723,584.350586 410.428650,584.307068 407.844818,584.400269 
	C405.919525,584.469727 405.283203,585.677917 405.342682,587.388733 
	C405.403381,589.133850 404.824402,591.351807 407.455414,591.705933 
	C410.204834,592.076050 412.890137,591.958679 413.623169,587.654968 
z"/>
<path fill="#000000" opacity="1.000000" stroke="none" 
	d="
M526.426636,606.143433 
	C523.758789,605.277222 524.976013,603.728333 525.486633,602.483643 
	C528.066956,596.195007 530.722473,589.937073 533.374451,583.678040 
	C533.889160,582.463257 534.385620,581.129700 535.988953,581.006287 
	C537.388855,580.898560 538.057983,581.876831 538.510071,583.003601 
	C541.459106,590.353760 544.391968,597.710388 547.287964,604.959290 
	C544.611145,607.083984 543.684143,605.577881 542.680481,603.877136 
	C539.371521,598.270203 532.118530,598.419312 528.818542,604.124207 
	C528.323975,604.979248 527.914368,605.926270 526.426636,606.143433 
M537.551453,596.342102 
	C539.217957,596.444031 539.602539,595.592773 539.044312,594.201477 
	C538.214600,592.133606 537.812683,589.841125 536.111389,588.135132 
	C533.641052,592.099670 533.562683,592.305359 533.052124,596.265076 
	C534.366394,596.265076 535.648010,596.265076 537.551453,596.342102 
z"/>
<path fill="#000000" opacity="1.000000" stroke="none" 
	d="
M306.002258,606.371582 
	C298.777374,606.287231 298.766785,606.287231 298.751617,599.409973 
	C298.740997,594.591858 298.822601,589.772766 298.750397,584.955750 
	C298.707245,582.075562 299.835297,580.472229 302.850128,580.752258 
	C306.487823,581.090088 310.362183,579.681213 314.087036,582.031860 
	C312.746094,585.248230 310.140533,584.204956 308.099762,584.286682 
	C305.464966,584.392090 303.073273,584.297913 303.055176,588.048584 
	C303.036469,591.932495 305.603638,591.648987 308.147552,591.655701 
	C309.143555,591.658386 310.142700,591.672241 311.134430,591.753906 
	C312.168762,591.839172 313.226654,592.140747 313.318085,593.354431 
	C313.438202,594.948547 312.174042,595.184631 310.975616,595.252380 
	C309.484070,595.336792 307.985718,595.359680 306.491791,595.331482 
	C303.859253,595.281738 303.070312,596.735413 303.081482,599.124512 
	C303.092804,601.551758 304.035645,602.713135 306.584564,602.909729 
	C309.092438,603.103210 312.196655,601.646301 314.235046,605.143799 
	C311.693939,607.123596 308.969635,606.123474 306.002258,606.371582 
z"/>
<path fill="#000000" opacity="1.000000" stroke="none" 
	d="
M458.858459,602.910767 
	C460.716919,603.071655 462.402161,602.758972 462.950592,605.509277 
	C458.371033,607.089539 453.707611,606.498535 449.102844,605.825134 
	C447.813446,605.636597 447.747223,604.062561 447.740326,602.896118 
	C447.703918,596.735718 447.729736,590.574951 447.683319,584.414673 
	C447.664581,581.924194 448.813049,580.579468 451.295807,580.789185 
	C455.140076,581.113953 459.336731,579.492249 463.072418,582.172607 
	C461.516998,585.136780 459.274902,584.237000 457.450806,584.290771 
	C451.330872,584.471191 451.223480,584.546875 452.328247,591.028137 
	C455.328369,593.133423 459.674805,589.875610 462.423096,593.373596 
	C461.293732,596.164185 458.988708,595.091248 457.184570,595.255920 
	C454.483917,595.502502 451.349274,594.488953 451.465454,599.240356 
	C451.582886,604.044861 454.846588,602.686829 457.428192,602.907471 
	C457.758759,602.935791 458.093903,602.910156 458.858459,602.910767 
z"/>
<path fill="#000000" opacity="1.000000" stroke="none" 
	d="
M580.597961,594.937866 
	C577.927856,590.352844 575.363892,586.162720 572.256165,581.083923 
	C579.557068,581.031921 579.163513,588.226929 583.347290,589.976929 
	C587.396118,588.068604 587.045288,581.376404 593.003052,580.786438 
	C593.396057,584.326660 591.068054,586.129822 589.631592,588.118347 
	C586.613220,592.296814 584.428162,596.543701 585.133667,601.921753 
	C585.331665,603.431335 585.563660,605.789062 583.291016,605.904541 
	C580.582642,606.042175 581.092407,603.516602 580.949951,601.814819 
	C580.769714,599.662292 580.777405,597.494080 580.597961,594.937866 
z"/>
<path fill="#000000" opacity="1.000000" stroke="none" 
	d="
M672.900757,605.253418 
	C672.518372,598.146484 672.310425,591.389160 672.248535,584.630493 
	C672.235779,583.243591 672.190125,581.284912 674.231079,581.210205 
	C676.383057,581.131470 676.229004,583.058594 676.239868,584.485962 
	C676.286560,590.605286 676.296448,596.725830 676.214905,602.844604 
	C676.190125,604.706177 676.051880,606.814941 672.900757,605.253418 
z"/>
</svg>